<svg xmlns="http://www.w3.org/2000/svg" xmlns:xlink="http://www.w3.org/1999/xlink" width="192" zoomAndPan="magnify" viewBox="0 0 144 143.999998" height="192" preserveAspectRatio="xMidYMid meet" version="1.0"><defs><g/><clipPath id="66141d89a2"><path d="M 0 68.367188 L 144 68.367188 L 144 144 L 0 144 Z M 0 68.367188 " clip-rule="nonzero"/></clipPath></defs><rect x="-14.4" width="172.8" fill="#ffffff" y="-14.4" height="172.799997" fill-opacity="1"/><rect x="-14.4" width="172.8" fill="#ffffff" y="-14.4" height="172.799997" fill-opacity="1"/><rect x="-14.4" width="172.8" fill="#000000" y="-14.4" height="172.799997" fill-opacity="1"/><g clip-path="url(#66141d89a2)"><path fill="#000000" d="M 1.785156 68.367188 L 232.75 68.367188 C 233.058594 68.367188 233.363281 68.394531 233.667969 68.457031 C 233.96875 68.515625 234.261719 68.605469 234.546875 68.722656 C 234.832031 68.839844 235.101562 68.984375 235.359375 69.15625 C 235.613281 69.328125 235.851562 69.523438 236.070312 69.742188 C 236.289062 69.957031 236.480469 70.195312 236.652344 70.453125 C 236.824219 70.707031 236.96875 70.980469 237.085938 71.261719 C 237.207031 71.546875 237.292969 71.839844 237.355469 72.144531 C 237.414062 72.445312 237.445312 72.75 237.445312 73.058594 L 237.445312 260.207031 C 237.445312 260.515625 237.414062 260.824219 237.355469 261.125 C 237.292969 261.425781 237.207031 261.71875 237.085938 262.003906 C 236.96875 262.289062 236.824219 262.5625 236.652344 262.816406 C 236.480469 263.074219 236.289062 263.308594 236.070312 263.527344 C 235.851562 263.746094 235.613281 263.941406 235.359375 264.113281 C 235.101562 264.28125 234.832031 264.429688 234.546875 264.546875 C 234.261719 264.664062 233.96875 264.753906 233.667969 264.8125 C 233.363281 264.871094 233.058594 264.902344 232.75 264.902344 L 1.785156 264.902344 C 1.476562 264.902344 1.171875 264.871094 0.867188 264.8125 C 0.566406 264.753906 0.273438 264.664062 -0.0117188 264.546875 C -0.296875 264.429688 -0.566406 264.28125 -0.824219 264.113281 C -1.082031 263.941406 -1.316406 263.746094 -1.535156 263.527344 C -1.753906 263.308594 -1.949219 263.074219 -2.121094 262.816406 C -2.289062 262.5625 -2.433594 262.289062 -2.554688 262.003906 C -2.671875 261.71875 -2.761719 261.425781 -2.820312 261.125 C -2.878906 260.824219 -2.910156 260.515625 -2.910156 260.207031 L -2.910156 73.058594 C -2.910156 72.75 -2.878906 72.445312 -2.820312 72.144531 C -2.761719 71.839844 -2.671875 71.546875 -2.554688 71.261719 C -2.433594 70.980469 -2.289062 70.707031 -2.121094 70.453125 C -1.949219 70.195312 -1.753906 69.957031 -1.535156 69.742188 C -1.316406 69.523438 -1.082031 69.328125 -0.824219 69.15625 C -0.566406 68.984375 -0.296875 68.839844 -0.0117188 68.722656 C 0.273438 68.605469 0.566406 68.515625 0.867188 68.457031 C 1.171875 68.394531 1.476562 68.367188 1.785156 68.367188 Z M 1.785156 68.367188 " fill-opacity="1" fill-rule="nonzero"/></g><path fill="#ff9090" d="M 23.605469 88.808594 C 22.800781 88.003906 21.832031 87.601562 20.695312 87.601562 C 19.5625 87.601562 18.585938 88.007812 17.777344 88.820312 C 16.976562 89.617188 16.570312 90.589844 16.570312 91.726562 C 16.570312 92.863281 16.976562 93.835938 17.777344 94.636719 L 30.394531 107.257812 L 17.789062 119.863281 C 16.976562 120.675781 16.570312 121.648438 16.558594 122.785156 C 16.570312 123.921875 16.976562 124.894531 17.777344 125.691406 C 18.585938 126.492188 19.5625 126.898438 20.683594 126.910156 C 21.832031 126.910156 22.804688 126.503906 23.617188 125.691406 L 37.640625 111.660156 C 40.582031 108.726562 40.582031 105.785156 37.640625 102.839844 Z M 78.570312 119.886719 C 77.761719 119.078125 76.777344 118.671875 75.628906 118.671875 L 75.628906 118.664062 L 48.554688 118.664062 L 48.554688 118.671875 C 47.410156 118.671875 46.433594 119.078125 45.625 119.886719 C 44.8125 120.699219 44.40625 121.671875 44.40625 122.820312 C 44.40625 123.964844 44.8125 124.953125 45.625 125.761719 C 46.433594 126.574219 47.410156 126.980469 48.554688 126.980469 L 48.554688 126.972656 L 75.628906 126.972656 L 75.628906 126.980469 C 76.777344 126.980469 77.761719 126.574219 78.570312 125.761719 C 79.382812 124.953125 79.789062 123.964844 79.789062 122.820312 C 79.789062 121.671875 79.382812 120.699219 78.570312 119.886719 Z M 78.570312 119.886719 " fill-opacity="1" fill-rule="nonzero"/><g fill="#ffffff" fill-opacity="1"><g transform="translate(34.567521, 113.879247)"><g><path d="M 73.171875 -44.625 C 78.078125 -43.070312 81.921875 -40.472656 84.703125 -36.828125 C 87.484375 -33.191406 88.875 -28.71875 88.875 -23.40625 C 88.875 -15.894531 85.953125 -10.113281 80.109375 -6.0625 C 74.265625 -2.019531 65.742188 0 54.546875 0 L 10.171875 0 L 10.171875 -85.8125 L 52.09375 -85.8125 C 62.550781 -85.8125 70.578125 -83.804688 76.171875 -79.796875 C 81.773438 -75.796875 84.578125 -70.363281 84.578125 -63.5 C 84.578125 -59.332031 83.578125 -55.613281 81.578125 -52.34375 C 79.578125 -49.070312 76.773438 -46.5 73.171875 -44.625 Z M 29.90625 -70.84375 L 29.90625 -50.625 L 49.640625 -50.625 C 54.546875 -50.625 58.265625 -51.476562 60.796875 -53.1875 C 63.328125 -54.90625 64.59375 -57.441406 64.59375 -60.796875 C 64.59375 -64.148438 63.328125 -66.660156 60.796875 -68.328125 C 58.265625 -70.003906 54.546875 -70.84375 49.640625 -70.84375 Z M 53.078125 -14.953125 C 58.304688 -14.953125 62.25 -15.8125 64.90625 -17.53125 C 67.5625 -19.25 68.890625 -21.90625 68.890625 -25.5 C 68.890625 -32.601562 63.617188 -36.15625 53.078125 -36.15625 L 29.90625 -36.15625 L 29.90625 -14.953125 Z M 53.078125 -14.953125 "/></g></g></g></svg>