<svg xmlns="http://www.w3.org/2000/svg" xmlns:xlink="http://www.w3.org/1999/xlink" width="500" zoomAndPan="magnify" viewBox="0 0 375 299.999988" height="400" preserveAspectRatio="xMidYMid meet" version="1.0"><defs><g/><clipPath id="74b644eab1"><path d="M 5.601562 8.121094 L 107 8.121094 L 107 291.878906 L 5.601562 291.878906 Z M 5.601562 8.121094 " clip-rule="nonzero"/></clipPath><clipPath id="e71eac269a"><path d="M 268 8.121094 L 369.398438 8.121094 L 369.398438 291.878906 L 268 291.878906 Z M 268 8.121094 " clip-rule="nonzero"/></clipPath></defs><g clip-path="url(#74b644eab1)"><path fill="#000000" d="M 5.683594 167.71875 L 5.683594 132.289062 C 14.640625 131.894531 21.382812 129.976562 25.910156 126.527344 C 30.4375 123.085938 33.589844 117.917969 35.359375 111.027344 C 37.132812 104.136719 38.019531 92.769531 38.019531 76.921875 C 38.019531 60.191406 38.832031 48.082031 40.453125 40.601562 C 42.078125 33.125 45.152344 26.996094 49.683594 22.222656 C 54.207031 17.449219 60.285156 13.90625 67.914062 11.589844 C 75.542969 9.28125 85.855469 8.121094 98.847656 8.121094 L 106.671875 8.121094 L 106.671875 43.554688 C 93.480469 43.554688 85.164062 44.882812 81.71875 47.542969 C 78.273438 50.199219 76.550781 56.007812 76.550781 64.964844 C 76.550781 92.425781 74.878906 111.691406 71.53125 122.765625 C 68.183594 133.835938 60.605469 142.917969 48.796875 150.003906 C 57.851562 154.925781 64.714844 162.28125 69.390625 172.074219 C 74.066406 181.871094 76.40625 202.910156 76.40625 235.1875 C 76.40625 242.867188 77.535156 247.835938 79.800781 250.101562 C 82.0625 252.363281 84.449219 254.015625 86.960938 255.046875 C 89.46875 256.082031 96.039062 256.597656 106.671875 256.597656 L 106.671875 291.882812 L 98.84375 291.882812 C 78.960938 291.882812 65.480469 289.445312 58.390625 284.574219 C 51.304688 279.703125 46.136719 274.066406 42.890625 267.671875 C 39.640625 261.273438 38.019531 246.460938 38.019531 223.230469 C 38.019531 207.484375 37.179688 196.214844 35.507812 189.421875 C 33.832031 182.628906 30.710938 177.4375 26.132812 173.84375 C 21.554688 170.253906 14.730469 168.214844 5.679688 167.71875 Z M 5.683594 167.71875 " fill-opacity="1" fill-rule="nonzero"/></g><g clip-path="url(#e71eac269a)"><path fill="#000000" d="M 348.875 173.847656 C 344.296875 177.441406 341.171875 182.632812 339.5 189.421875 C 337.828125 196.214844 336.988281 207.488281 336.988281 223.234375 C 336.988281 246.464844 335.363281 261.273438 332.117188 267.671875 C 328.867188 274.070312 323.703125 279.707031 316.613281 284.578125 C 309.527344 289.449219 296.042969 291.886719 276.160156 291.886719 L 268.335938 291.886719 L 268.335938 256.601562 C 278.964844 256.601562 285.535156 256.082031 288.046875 255.050781 C 290.554688 254.015625 292.941406 252.367188 295.207031 250.105469 C 297.472656 247.839844 298.601562 242.871094 298.601562 235.191406 C 298.601562 202.910156 300.941406 181.871094 305.613281 172.078125 C 310.289062 162.285156 317.15625 154.929688 326.210938 150.007812 C 314.398438 142.917969 306.820312 133.839844 303.472656 122.765625 C 300.128906 111.695312 298.453125 92.425781 298.453125 64.964844 C 298.453125 56.011719 296.734375 50.203125 293.285156 47.542969 C 289.84375 44.886719 281.527344 43.558594 268.335938 43.558594 L 268.335938 8.121094 L 276.160156 8.121094 C 289.152344 8.121094 299.464844 9.28125 307.089844 11.589844 C 314.71875 13.90625 320.796875 17.449219 325.324219 22.222656 C 329.851562 26.996094 332.929688 33.125 334.550781 40.601562 C 336.175781 48.082031 336.988281 60.191406 336.988281 76.921875 C 336.988281 92.769531 337.875 104.140625 339.644531 111.027344 C 341.417969 117.917969 344.570312 123.085938 349.09375 126.53125 C 353.625 129.976562 360.367188 131.894531 369.320312 132.289062 L 369.320312 167.722656 C 360.261719 168.21875 353.441406 170.253906 348.867188 173.847656 Z M 348.875 173.847656 " fill-opacity="1" fill-rule="nonzero"/></g><g fill="#000000" fill-opacity="1"><g transform="translate(105.473576, 240.28026)"><g><path d="M 96.730469 -180.5625 L 13.15625 -180.5625 L 13.15625 0 L 96.214844 0 C 134.128906 0 153.992188 -29.148438 153.992188 -58.296875 C 153.992188 -73.515625 146.253906 -89.25 127.167969 -99.050781 C 139.03125 -107.304688 144.449219 -119.945312 144.449219 -132.324219 C 144.449219 -156.054688 125.359375 -180.5625 96.730469 -180.5625 Z M 90.023438 -115.300781 L 56.746094 -115.300781 L 56.746094 -140.578125 L 90.539062 -140.578125 C 97.503906 -140.578125 101.371094 -134.386719 101.371094 -128.199219 C 101.371094 -121.75 97.761719 -115.300781 90.023438 -115.300781 Z M 96.214844 -41.785156 L 56.746094 -41.785156 L 56.746094 -74.546875 L 96.214844 -74.546875 C 105.5 -74.546875 110.140625 -66.292969 110.140625 -58.039062 C 110.140625 -49.78125 105.5 -41.785156 96.214844 -41.785156 Z M 96.214844 -41.785156 "/></g></g></g></svg>