<svg xmlns="http://www.w3.org/2000/svg" xmlns:xlink="http://www.w3.org/1999/xlink" width="100" zoomAndPan="magnify" viewBox="0 0 75 74.999997" height="100" preserveAspectRatio="xMidYMid meet" version="1.0"><path fill="#673ab7" d="M 75 64.582031 C 75 70.335938 70.335938 75 64.582031 75 L 10.417969 75 C 4.664062 75 0 70.335938 0 64.582031 L 0 10.417969 C 0 4.664062 4.664062 0 10.417969 0 L 64.582031 0 C 70.335938 0 75 4.664062 75 10.417969 Z M 75 64.582031 " fill-opacity="1" fill-rule="nonzero"/><path fill="#ffffff" d="M 56.3125 40.832031 C 54.957031 38.957031 53 37.667969 50.480469 36.980469 C 50.480469 36.980469 52.605469 36.207031 54.519531 33.332031 C 55.667969 31.5 56.25 29.292969 56.25 26.707031 C 56.25 22.230469 54.625 18.792969 51.375 16.4375 C 48.125 14.082031 44.457031 12.5 38.230469 12.5 L 18.75 12.5 L 18.75 62.5 L 40.480469 62.5 C 46.375 62.457031 50.8125 61.1875 53.832031 58.75 C 56.832031 56.269531 58.332031 52.605469 58.332031 47.707031 C 58.332031 45 57.667969 42.707031 56.3125 40.832031 Z M 31.25 20.832031 C 31.25 20.832031 39.9375 20.832031 40.105469 20.832031 C 43.269531 20.832031 45.832031 23.394531 45.832031 26.5625 C 45.832031 29.730469 43.269531 32.292969 40.105469 32.292969 C 39.9375 32.292969 31.25 32.292969 31.25 32.292969 Z M 41.667969 54.167969 L 31.25 54.167969 L 31.25 41.667969 L 41.667969 41.667969 C 45.125 41.667969 47.917969 44.457031 47.917969 47.917969 C 47.917969 51.375 45.125 54.167969 41.667969 54.167969 Z M 41.667969 54.167969 " fill-opacity="1" fill-rule="nonzero"/></svg>