<svg xmlns="http://www.w3.org/2000/svg" xmlns:xlink="http://www.w3.org/1999/xlink" width="100" zoomAndPan="magnify" viewBox="0 0 75 74.999997" height="100" preserveAspectRatio="xMidYMid meet" version="1.0"><defs><clipPath id="ddbda89486"><path d="M 10.933594 14 L 64.183594 14 L 64.183594 75 L 10.933594 75 Z M 10.933594 14 " clip-rule="nonzero"/></clipPath></defs><g clip-path="url(#ddbda89486)"><path fill="#264de4" d="M 37.535156 74.996094 L 15.808594 68.972656 L 10.96875 14.738281 L 64.167969 14.738281 L 59.320312 68.964844 Z M 37.535156 74.996094 " fill-opacity="1" fill-rule="nonzero"/></g><path fill="#2965f1" d="M 55.171875 65.511719 L 59.316406 19.175781 L 37.566406 19.171875 L 37.566406 70.386719 Z M 55.171875 65.511719 " fill-opacity="1" fill-rule="nonzero"/><path fill="#ebebeb" d="M 22.066406 39.289062 L 22.664062 45.9375 L 37.566406 45.9375 L 37.566406 39.289062 Z M 22.066406 39.289062 " fill-opacity="1" fill-rule="nonzero"/><path fill="#ebebeb" d="M 20.867188 25.824219 L 21.472656 32.476562 L 37.566406 32.476562 L 37.566406 25.824219 Z M 20.867188 25.824219 " fill-opacity="1" fill-rule="nonzero"/><path fill="#ebebeb" d="M 37.566406 56.5625 L 37.539062 56.570312 L 30.121094 54.570312 L 29.648438 49.265625 L 22.960938 49.265625 L 23.894531 59.710938 L 37.535156 63.492188 L 37.566406 63.484375 Z M 37.566406 56.5625 " fill-opacity="1" fill-rule="nonzero"/><path fill="#000000" d="M 23.488281 0 L 31.554688 0 L 31.554688 3.367188 L 26.863281 3.367188 L 26.863281 6.738281 L 31.554688 6.738281 L 31.554688 10.105469 L 23.488281 10.105469 Z M 23.488281 0 " fill-opacity="1" fill-rule="nonzero"/><path fill="#000000" d="M 33.167969 0 L 41.234375 0 L 41.234375 2.929688 L 36.542969 2.929688 L 36.542969 3.515625 L 41.234375 3.515625 L 41.234375 10.253906 L 33.167969 10.253906 L 33.167969 7.175781 L 37.863281 7.175781 L 37.863281 6.589844 L 33.167969 6.589844 Z M 33.167969 0 " fill-opacity="1" fill-rule="nonzero"/><path fill="#000000" d="M 42.847656 0 L 50.914062 0 L 50.914062 2.929688 L 46.21875 2.929688 L 46.21875 3.515625 L 50.914062 3.515625 L 50.914062 10.253906 L 42.847656 10.253906 L 42.847656 7.175781 L 47.539062 7.175781 L 47.539062 6.589844 L 42.847656 6.589844 Z M 42.847656 0 " fill-opacity="1" fill-rule="nonzero"/><path fill="#ffffff" d="M 53.027344 39.289062 L 54.226562 25.824219 L 37.546875 25.824219 L 37.546875 32.476562 L 46.929688 32.476562 L 46.324219 39.289062 L 37.546875 39.289062 L 37.546875 45.9375 L 45.746094 45.9375 L 44.972656 54.566406 L 37.546875 56.570312 L 37.546875 63.488281 L 51.199219 59.710938 L 51.296875 58.585938 L 52.863281 41.074219 Z M 53.027344 39.289062 " fill-opacity="1" fill-rule="nonzero"/></svg>