<svg xmlns="http://www.w3.org/2000/svg" xmlns:xlink="http://www.w3.org/1999/xlink" width="100" zoomAndPan="magnify" viewBox="0 0 75 74.999997" height="100" preserveAspectRatio="xMidYMid meet" version="1.0"><path fill="#f03c2e" d="M 73.585938 34.160156 L 40.839844 1.414062 C 40.617188 1.191406 40.371094 0.992188 40.109375 0.816406 C 39.84375 0.636719 39.566406 0.488281 39.273438 0.367188 C 38.980469 0.246094 38.679688 0.15625 38.367188 0.09375 C 38.054688 0.03125 37.742188 0 37.425781 0 C 37.109375 0 36.792969 0.03125 36.484375 0.09375 C 36.171875 0.15625 35.871094 0.246094 35.578125 0.367188 C 35.285156 0.488281 35.003906 0.636719 34.742188 0.816406 C 34.476562 0.992188 34.234375 1.191406 34.011719 1.414062 L 27.214844 8.210938 L 35.839844 16.835938 C 37.84375 16.132812 40.140625 16.613281 41.738281 18.214844 C 42.121094 18.59375 42.441406 19.019531 42.703125 19.492188 C 42.960938 19.964844 43.152344 20.460938 43.273438 20.984375 C 43.394531 21.511719 43.4375 22.042969 43.410156 22.582031 C 43.378906 23.117188 43.277344 23.640625 43.101562 24.148438 L 51.414062 32.464844 C 53.425781 31.769531 55.746094 32.21875 57.351562 33.828125 C 57.617188 34.09375 57.855469 34.382812 58.066406 34.699219 C 58.277344 35.011719 58.453125 35.34375 58.597656 35.691406 C 58.742188 36.042969 58.851562 36.402344 58.925781 36.769531 C 59 37.140625 59.035156 37.515625 59.035156 37.894531 C 59.035156 38.269531 59 38.644531 58.925781 39.015625 C 58.851562 39.386719 58.742188 39.746094 58.597656 40.09375 C 58.453125 40.441406 58.277344 40.773438 58.066406 41.085938 C 57.859375 41.402344 57.621094 41.691406 57.351562 41.957031 C 57.085938 42.226562 56.792969 42.464844 56.480469 42.671875 C 56.167969 42.882812 55.835938 43.058594 55.488281 43.203125 C 55.136719 43.347656 54.777344 43.457031 54.40625 43.53125 C 54.039062 43.605469 53.664062 43.640625 53.285156 43.640625 C 52.910156 43.640625 52.535156 43.605469 52.164062 43.53125 C 51.792969 43.457031 51.433594 43.347656 51.085938 43.203125 C 50.738281 43.058594 50.40625 42.882812 50.09375 42.671875 C 49.777344 42.460938 49.488281 42.222656 49.222656 41.957031 C 47.535156 40.269531 47.117188 37.785156 47.96875 35.703125 L 40.214844 27.953125 L 40.214844 48.355469 C 40.78125 48.632812 41.289062 48.996094 41.738281 49.441406 C 42.007812 49.707031 42.246094 50 42.453125 50.3125 C 42.664062 50.625 42.839844 50.957031 42.984375 51.304688 C 43.128906 51.65625 43.238281 52.015625 43.3125 52.382812 C 43.386719 52.753906 43.421875 53.128906 43.421875 53.503906 C 43.421875 53.882812 43.386719 54.257812 43.3125 54.625 C 43.238281 54.996094 43.128906 55.355469 42.984375 55.703125 C 42.839844 56.054688 42.664062 56.386719 42.453125 56.699219 C 42.246094 57.011719 42.007812 57.300781 41.738281 57.570312 C 41.472656 57.835938 41.183594 58.074219 40.867188 58.285156 C 40.554688 58.492188 40.222656 58.671875 39.875 58.816406 C 39.527344 58.960938 39.167969 59.070312 38.796875 59.140625 C 38.425781 59.214844 38.054688 59.253906 37.675781 59.253906 C 37.296875 59.253906 36.925781 59.214844 36.554688 59.140625 C 36.183594 59.070312 35.824219 58.960938 35.476562 58.816406 C 35.128906 58.671875 34.796875 58.492188 34.484375 58.285156 C 34.167969 58.074219 33.878906 57.835938 33.613281 57.570312 C 33.34375 57.304688 33.105469 57.011719 32.894531 56.699219 C 32.6875 56.386719 32.507812 56.054688 32.363281 55.707031 C 32.21875 55.355469 32.109375 54.996094 32.035156 54.628906 C 31.964844 54.257812 31.925781 53.882812 31.925781 53.503906 C 31.925781 53.128906 31.964844 52.753906 32.035156 52.382812 C 32.109375 52.015625 32.21875 51.652344 32.363281 51.304688 C 32.507812 50.957031 32.6875 50.625 32.894531 50.3125 C 33.105469 50 33.34375 49.707031 33.613281 49.441406 C 34.167969 48.886719 34.785156 48.46875 35.492188 48.1875 L 35.492188 27.59375 C 34.808594 27.3125 34.167969 26.898438 33.613281 26.339844 C 33.207031 25.9375 32.871094 25.484375 32.605469 24.980469 C 32.335938 24.480469 32.144531 23.949219 32.035156 23.386719 C 31.925781 22.828125 31.898438 22.265625 31.957031 21.699219 C 32.015625 21.128906 32.152344 20.582031 32.375 20.058594 L 23.867188 11.554688 L 1.414062 33.984375 C 1.1875 34.207031 0.988281 34.453125 0.8125 34.714844 C 0.636719 34.980469 0.488281 35.257812 0.363281 35.550781 C 0.242188 35.84375 0.152344 36.148438 0.0898438 36.457031 C 0.0273438 36.769531 -0.00390625 37.082031 -0.00390625 37.398438 C -0.00390625 37.71875 0.0273438 38.03125 0.0898438 38.34375 C 0.152344 38.652344 0.242188 38.957031 0.363281 39.25 C 0.488281 39.542969 0.636719 39.820312 0.8125 40.085938 C 0.988281 40.347656 1.1875 40.59375 1.414062 40.816406 L 34.160156 73.558594 C 34.382812 73.78125 34.628906 73.984375 34.890625 74.160156 C 35.15625 74.335938 35.433594 74.484375 35.726562 74.605469 C 36.019531 74.726562 36.320312 74.820312 36.632812 74.878906 C 36.945312 74.941406 37.257812 74.972656 37.574219 74.972656 C 37.890625 74.972656 38.207031 74.941406 38.515625 74.878906 C 38.828125 74.820312 39.128906 74.726562 39.421875 74.605469 C 39.714844 74.484375 39.996094 74.335938 40.257812 74.160156 C 40.523438 73.984375 40.765625 73.78125 40.988281 73.558594 L 73.585938 41.015625 C 73.808594 40.792969 74.007812 40.546875 74.1875 40.285156 C 74.363281 40.019531 74.511719 39.742188 74.632812 39.449219 C 74.753906 39.15625 74.84375 38.851562 74.90625 38.542969 C 74.96875 38.230469 75 37.917969 75 37.597656 C 75 37.28125 74.96875 36.96875 74.90625 36.65625 C 74.84375 36.347656 74.753906 36.042969 74.632812 35.75 C 74.511719 35.457031 74.363281 35.179688 74.1875 34.914062 C 74.007812 34.652344 73.808594 34.40625 73.585938 34.183594 " fill-opacity="1" fill-rule="nonzero"/></svg>