<svg xmlns="http://www.w3.org/2000/svg" xmlns:xlink="http://www.w3.org/1999/xlink" width="100" zoomAndPan="magnify" viewBox="0 0 75 74.999997" height="100" preserveAspectRatio="xMidYMid meet" version="1.0"><defs><clipPath id="a7718af221"><path d="M 10.910156 14 L 64.160156 14 L 64.160156 75 L 10.910156 75 Z M 10.910156 14 " clip-rule="nonzero"/></clipPath></defs><g clip-path="url(#a7718af221)"><path fill="#e44d26" d="M 64.144531 14.738281 L 59.296875 68.964844 L 37.511719 74.996094 L 15.785156 68.972656 L 10.941406 14.738281 Z M 64.144531 14.738281 " fill-opacity="1" fill-rule="nonzero"/></g><path fill="#f16529" d="M 37.542969 70.386719 L 55.148438 65.511719 L 59.292969 19.175781 L 37.542969 19.171875 Z M 37.542969 70.386719 " fill-opacity="1" fill-rule="nonzero"/><path fill="#ebebeb" d="M 28.121094 32.476562 L 37.542969 32.476562 L 37.542969 25.824219 L 20.84375 25.824219 L 21.003906 27.609375 L 22.640625 45.9375 L 37.542969 45.9375 L 37.542969 39.289062 L 28.730469 39.289062 Z M 28.121094 32.476562 " fill-opacity="1" fill-rule="nonzero"/><path fill="#ebebeb" d="M 29.625 49.265625 L 22.9375 49.265625 L 23.871094 59.710938 L 37.511719 63.492188 L 37.542969 63.484375 L 37.542969 56.5625 L 37.515625 56.570312 L 30.097656 54.570312 Z M 29.625 49.265625 " fill-opacity="1" fill-rule="nonzero"/><path fill="#000000" d="M 15.894531 0 L 19.277344 0 L 19.277344 3.339844 L 22.375 3.339844 L 22.375 0 L 25.757812 0 L 25.757812 10.113281 L 22.375 10.113281 L 22.375 6.726562 L 19.277344 6.726562 L 19.277344 10.113281 L 15.894531 10.113281 Z M 15.894531 0 " fill-opacity="1" fill-rule="nonzero"/><path fill="#000000" d="M 30.210938 3.355469 L 27.230469 3.355469 L 27.230469 0 L 36.578125 0 L 36.578125 3.355469 L 33.59375 3.355469 L 33.59375 10.113281 L 30.210938 10.113281 Z M 30.210938 3.355469 " fill-opacity="1" fill-rule="nonzero"/><path fill="#000000" d="M 38.058594 0 L 41.589844 0 L 43.757812 3.554688 L 45.929688 0 L 49.460938 0 L 49.460938 10.113281 L 46.089844 10.113281 L 46.089844 5.101562 L 43.757812 8.695312 L 43.699219 8.695312 L 41.371094 5.101562 L 41.371094 10.113281 L 38.058594 10.113281 Z M 38.058594 0 " fill-opacity="1" fill-rule="nonzero"/><path fill="#000000" d="M 51.144531 0 L 54.527344 0 L 54.527344 6.769531 L 59.289062 6.769531 L 59.289062 10.113281 L 51.144531 10.113281 Z M 51.144531 0 " fill-opacity="1" fill-rule="nonzero"/><path fill="#ffffff" d="M 37.523438 45.9375 L 45.722656 45.9375 L 44.949219 54.566406 L 37.523438 56.570312 L 37.523438 63.488281 L 51.175781 59.710938 L 51.277344 58.585938 L 52.839844 41.074219 L 53.003906 39.289062 L 37.523438 39.289062 Z M 37.523438 45.9375 " fill-opacity="1" fill-rule="nonzero"/><path fill="#ffffff" d="M 37.523438 32.460938 L 37.523438 32.476562 L 53.609375 32.476562 L 53.742188 30.980469 L 54.046875 27.609375 L 54.207031 25.824219 L 37.523438 25.824219 Z M 37.523438 32.460938 " fill-opacity="1" fill-rule="nonzero"/></svg>