<svg xmlns="http://www.w3.org/2000/svg" xmlns:xlink="http://www.w3.org/1999/xlink" width="100" zoomAndPan="magnify" viewBox="0 0 75 74.999997" height="100" preserveAspectRatio="xMidYMid meet" version="1.0"><defs><clipPath id="ba548356cd"><path d="M 0.894531 9 L 74.394531 9 L 74.394531 75 L 0.894531 75 Z M 0.894531 9 " clip-rule="nonzero"/></clipPath></defs><g clip-path="url(#ba548356cd)"><path fill="#00d8ff" d="M 61.300781 30.160156 C 60.515625 29.894531 59.730469 29.644531 58.933594 29.417969 C 59.066406 28.875 59.191406 28.335938 59.300781 27.808594 C 61.089844 19.144531 59.917969 12.160156 55.921875 9.863281 C 52.089844 7.660156 45.820312 9.957031 39.492188 15.449219 C 38.867188 15.992188 38.257812 16.550781 37.660156 17.125 C 37.261719 16.742188 36.855469 16.371094 36.445312 16.003906 C 29.808594 10.128906 23.160156 7.652344 19.167969 9.957031 C 15.335938 12.167969 14.203125 18.730469 15.816406 26.945312 C 15.976562 27.757812 16.15625 28.566406 16.359375 29.371094 C 15.417969 29.636719 14.507812 29.921875 13.640625 30.226562 C 5.859375 32.929688 0.894531 37.167969 0.894531 41.5625 C 0.894531 46.105469 6.226562 50.65625 14.328125 53.417969 C 14.984375 53.640625 15.648438 53.847656 16.3125 54.039062 C 16.097656 54.90625 15.90625 55.777344 15.738281 56.652344 C 14.199219 64.722656 15.402344 71.132812 19.21875 73.328125 C 23.164062 75.597656 29.785156 73.265625 36.230469 67.648438 C 36.753906 67.191406 37.265625 66.71875 37.761719 66.238281 C 38.410156 66.859375 39.070312 67.460938 39.75 68.042969 C 45.992188 73.402344 52.160156 75.566406 55.976562 73.363281 C 59.917969 71.089844 61.195312 64.203125 59.535156 55.828125 C 59.402344 55.171875 59.257812 54.519531 59.09375 53.871094 C 59.558594 53.734375 60.015625 53.59375 60.460938 53.445312 C 68.882812 50.664062 74.363281 46.164062 74.363281 41.5625 C 74.363281 37.152344 69.234375 32.882812 61.300781 30.160156 Z M 59.472656 50.476562 C 59.070312 50.609375 58.660156 50.734375 58.238281 50.859375 C 57.308594 47.925781 56.054688 44.804688 54.519531 41.578125 C 55.984375 38.429688 57.191406 35.347656 58.09375 32.433594 C 58.84375 32.648438 59.574219 32.878906 60.277344 33.121094 C 67.078125 35.453125 71.222656 38.90625 71.222656 41.5625 C 71.222656 44.394531 66.746094 48.070312 59.472656 50.476562 Z M 56.457031 56.4375 C 57.191406 60.140625 57.296875 63.488281 56.808594 66.105469 C 56.371094 68.457031 55.492188 70.027344 54.402344 70.65625 C 52.085938 71.992188 47.136719 70.253906 41.796875 65.671875 C 41.164062 65.128906 40.550781 64.570312 39.949219 63.992188 C 42.019531 61.734375 44.089844 59.109375 46.109375 56.195312 C 49.660156 55.878906 53.015625 55.367188 56.058594 54.664062 C 56.203125 55.253906 56.335938 55.84375 56.457031 56.4375 Z M 25.941406 70.425781 C 23.679688 71.21875 21.878906 71.242188 20.789062 70.617188 C 18.46875 69.285156 17.507812 64.140625 18.820312 57.238281 C 18.976562 56.421875 19.15625 55.609375 19.359375 54.804688 C 22.367188 55.46875 25.699219 55.945312 29.257812 56.234375 C 31.289062 59.085938 33.417969 61.707031 35.566406 64.003906 C 35.109375 64.445312 34.640625 64.871094 34.164062 65.289062 C 31.316406 67.773438 28.457031 69.539062 25.941406 70.425781 Z M 15.34375 50.457031 C 11.761719 49.238281 8.800781 47.648438 6.773438 45.917969 C 4.953125 44.363281 4.03125 42.816406 4.03125 41.5625 C 4.03125 38.894531 8.019531 35.492188 14.671875 33.179688 C 15.480469 32.898438 16.324219 32.636719 17.203125 32.386719 C 18.121094 35.367188 19.328125 38.488281 20.78125 41.640625 C 19.308594 44.839844 18.085938 48.007812 17.15625 51.023438 C 16.546875 50.851562 15.941406 50.660156 15.34375 50.457031 Z M 18.894531 26.34375 C 17.515625 19.308594 18.433594 14 20.738281 12.667969 C 23.199219 11.25 28.632812 13.269531 34.359375 18.34375 C 34.734375 18.675781 35.101562 19.011719 35.464844 19.359375 C 33.328125 21.644531 31.21875 24.246094 29.203125 27.082031 C 25.75 27.402344 22.441406 27.914062 19.402344 28.601562 C 19.214844 27.851562 19.046875 27.101562 18.894531 26.34375 Z M 50.585938 34.148438 C 49.867188 32.910156 49.125 31.6875 48.351562 30.484375 C 50.695312 30.777344 52.941406 31.171875 55.050781 31.652344 C 54.417969 33.675781 53.628906 35.789062 52.699219 37.960938 C 52.019531 36.675781 51.316406 35.402344 50.585938 34.148438 Z M 37.664062 21.59375 C 39.109375 23.160156 40.5625 24.90625 41.988281 26.800781 C 39.09375 26.664062 36.195312 26.664062 33.304688 26.796875 C 34.730469 24.921875 36.191406 23.175781 37.664062 21.59375 Z M 24.65625 34.167969 C 23.9375 35.414062 23.246094 36.679688 22.582031 37.957031 C 21.667969 35.796875 20.886719 33.671875 20.25 31.617188 C 22.34375 31.148438 24.578125 30.769531 26.910156 30.476562 C 26.128906 31.691406 25.378906 32.921875 24.65625 34.167969 Z M 26.976562 52.871094 C 24.570312 52.605469 22.300781 52.242188 20.203125 51.785156 C 20.855469 49.695312 21.652344 47.527344 22.585938 45.316406 C 23.25 46.597656 23.945312 47.863281 24.667969 49.109375 C 25.414062 50.390625 26.183594 51.648438 26.976562 52.871094 Z M 37.75 61.75 C 36.261719 60.152344 34.777344 58.382812 33.328125 56.476562 C 34.734375 56.53125 36.171875 56.558594 37.628906 56.558594 C 39.125 56.558594 40.605469 56.527344 42.0625 56.460938 C 40.632812 58.398438 39.1875 60.171875 37.75 61.75 Z M 52.730469 45.207031 C 53.710938 47.4375 54.539062 49.597656 55.195312 51.652344 C 53.066406 52.136719 50.765625 52.527344 48.34375 52.816406 C 49.121094 51.589844 49.871094 50.34375 50.597656 49.085938 C 51.339844 47.808594 52.046875 46.515625 52.730469 45.207031 Z M 47.878906 47.523438 C 46.769531 49.453125 45.59375 51.34375 44.355469 53.195312 C 42.117188 53.351562 39.871094 53.429688 37.628906 53.429688 C 35.339844 53.429688 33.117188 53.359375 30.976562 53.222656 C 29.707031 51.375 28.511719 49.480469 27.386719 47.542969 C 26.265625 45.613281 25.21875 43.644531 24.25 41.636719 C 25.21875 39.632812 26.261719 37.660156 27.375 35.730469 C 28.492188 33.804688 29.679688 31.917969 30.9375 30.078125 C 33.121094 29.914062 35.363281 29.828125 37.628906 29.828125 C 39.902344 29.828125 42.144531 29.914062 44.332031 30.078125 C 45.578125 31.914062 46.757812 33.796875 47.871094 35.714844 C 48.988281 37.640625 50.046875 39.601562 51.039062 41.59375 C 50.054688 43.605469 49.003906 45.585938 47.878906 47.523438 Z M 54.355469 12.574219 C 56.816406 13.988281 57.773438 19.695312 56.226562 27.175781 C 56.128906 27.652344 56.015625 28.140625 55.894531 28.632812 C 52.847656 27.933594 49.539062 27.410156 46.074219 27.085938 C 44.054688 24.21875 41.960938 21.613281 39.863281 19.355469 C 40.414062 18.828125 40.976562 18.3125 41.550781 17.8125 C 46.976562 13.105469 52.046875 11.246094 54.355469 12.574219 Z M 37.628906 35.019531 C 41.25 35.019531 44.1875 37.949219 44.1875 41.5625 C 44.1875 45.175781 41.25 48.105469 37.628906 48.105469 C 34.003906 48.105469 31.066406 45.175781 31.066406 41.5625 C 31.066406 37.949219 34.003906 35.019531 37.628906 35.019531 Z M 37.628906 35.019531 " fill-opacity="1" fill-rule="nonzero"/></g></svg>